<svg width="48" height="48" viewBox="0 0 48 48" fill="none" xmlns="http://www.w3.org/2000/svg">
<rect width="48" height="48" rx="24" fill="#706FE5"/>
<path d="M30.5508 21.9062C30.5508 22.043 30.5508 22.1523 30.5508 22.2891C30.5508 26.0898 27.6797 30.4375 22.4023 30.4375C20.7617 30.4375 19.2578 29.9727 18 29.1523C18.2188 29.1797 18.4375 29.207 18.6836 29.207C20.0234 29.207 21.2539 28.7422 22.2383 27.9766C20.9805 27.9492 19.9141 27.1289 19.5586 25.9805C19.75 26.0078 19.9141 26.0352 20.1055 26.0352C20.3516 26.0352 20.625 25.9805 20.8438 25.9258C19.5312 25.6523 18.5469 24.5039 18.5469 23.1094V23.082C18.9297 23.3008 19.3945 23.4102 19.8594 23.4375C19.0664 22.918 18.5742 22.043 18.5742 21.0586C18.5742 20.5117 18.7109 20.0195 18.957 19.6094C20.3789 21.332 22.5117 22.4805 24.8906 22.6172C24.8359 22.3984 24.8086 22.1797 24.8086 21.9609C24.8086 20.375 26.0938 19.0898 27.6797 19.0898C28.5 19.0898 29.2383 19.418 29.7852 19.9922C30.4141 19.8555 31.043 19.6094 31.5898 19.2812C31.3711 19.9648 30.9336 20.5117 30.332 20.8672C30.9062 20.8125 31.4805 20.6484 31.9727 20.4297C31.5898 21.0039 31.0977 21.4961 30.5508 21.9062Z" fill="white"/>
</svg>
