<svg width="48" height="48" viewBox="0 0 48 48" fill="none" xmlns="http://www.w3.org/2000/svg">
<rect width="48" height="48" rx="24" fill="#706FE5"/>
<path d="M24.5 21.6055C26.2227 21.6055 27.6445 23.0273 27.6445 24.75C27.6445 26.5 26.2227 27.8945 24.5 27.8945C22.75 27.8945 21.3555 26.5 21.3555 24.75C21.3555 23.0273 22.75 21.6055 24.5 21.6055ZM24.5 26.8008C25.6211 26.8008 26.5234 25.8984 26.5234 24.75C26.5234 23.6289 25.6211 22.7266 24.5 22.7266C23.3516 22.7266 22.4492 23.6289 22.4492 24.75C22.4492 25.8984 23.3789 26.8008 24.5 26.8008ZM28.4922 21.4961C28.4922 21.9062 28.1641 22.2344 27.7539 22.2344C27.3438 22.2344 27.0156 21.9062 27.0156 21.4961C27.0156 21.0859 27.3438 20.7578 27.7539 20.7578C28.1641 20.7578 28.4922 21.0859 28.4922 21.4961ZM30.5703 22.2344C30.625 23.2461 30.625 26.2812 30.5703 27.293C30.5156 28.2773 30.2969 29.125 29.5859 29.8633C28.875 30.5742 28 30.793 27.0156 30.8477C26.0039 30.9023 22.9688 30.9023 21.957 30.8477C20.9727 30.793 20.125 30.5742 19.3867 29.8633C18.6758 29.125 18.457 28.2773 18.4023 27.293C18.3477 26.2812 18.3477 23.2461 18.4023 22.2344C18.457 21.25 18.6758 20.375 19.3867 19.6641C20.125 18.9531 20.9727 18.7344 21.957 18.6797C22.9688 18.625 26.0039 18.625 27.0156 18.6797C28 18.7344 28.875 18.9531 29.5859 19.6641C30.2969 20.375 30.5156 21.25 30.5703 22.2344ZM29.2578 28.3594C29.5859 27.5664 29.5039 25.6523 29.5039 24.75C29.5039 23.875 29.5859 21.9609 29.2578 21.1406C29.0391 20.6211 28.6289 20.1836 28.1094 19.9922C27.2891 19.6641 25.375 19.7461 24.5 19.7461C23.5977 19.7461 21.6836 19.6641 20.8906 19.9922C20.3438 20.2109 19.9336 20.6211 19.7148 21.1406C19.3867 21.9609 19.4688 23.875 19.4688 24.75C19.4688 25.6523 19.3867 27.5664 19.7148 28.3594C19.9336 28.9062 20.3438 29.3164 20.8906 29.5352C21.6836 29.8633 23.5977 29.7812 24.5 29.7812C25.375 29.7812 27.2891 29.8633 28.1094 29.5352C28.6289 29.3164 29.0664 28.9062 29.2578 28.3594Z" fill="white"/>
</svg>
