<svg width="49" height="38" viewBox="0 0 49 38" fill="none" xmlns="http://www.w3.org/2000/svg">
<path d="M32.1 21L27.4 37.3L39.3 37.3L45.7 22.6C48.6 16.2 49 14 49 11.2C49 4.39998 44.2 -2.33276e-05 37.6 -2.39046e-05C31.1 -2.44729e-05 26.2 4.39998 26.2 11.2C26.2 15.9 28.5 19.3 32.1 21ZM5.89995 21L1.19995 37.3L13.1 37.3L19.5 22.6C22.4 16.2 22.8 14 22.8 11.2C22.8 4.39997 18 -2.56181e-05 11.4 -2.61951e-05C4.89995 -2.67633e-05 -4.59137e-05 4.39997 -4.65082e-05 11.2C-4.69191e-05 15.9 2.29995 19.3 5.89995 21Z" fill="#706FE5"/>
</svg>
