<svg width="49" height="38" viewBox="0 0 49 38" fill="none" xmlns="http://www.w3.org/2000/svg">
<path d="M16.9 16.3L21.6001 7.86781e-06H9.70005L3.30005 14.7C0.400049 21.1 4.88982e-05 23.3 4.88982e-05 26.1C4.88982e-05 32.9 4.80005 37.3 11.4 37.3C17.9001 37.3 22.8001 32.9 22.8001 26.1C22.8001 21.4 20.5 18 16.9 16.3ZM43.1001 16.3L47.8 7.86781e-06H35.9L29.5001 14.7C26.6001 21.1 26.2 23.3 26.2 26.1C26.2 32.9 31.0001 37.3 37.6001 37.3C44.1001 37.3 49.0001 32.9 49.0001 26.1C49.0001 21.4 46.7001 18 43.1001 16.3Z" fill="#706FE5"/>
</svg>
